<?xml version="1.0" encoding="UTF-8" standalone="no"?>
<!-- Created with Inkscape (http://www.inkscape.org/) -->

<svg
   width="676.76001mm"
   height="102.92126mm"
   viewBox="0 0 676.76002 102.9213"
   version="1.1"
   id="svg1"
   xml:space="preserve"
   inkscape:export-filename="DestabilizedPowerplant.svg"
   inkscape:export-xdpi="96"
   inkscape:export-ydpi="96"
   sodipodi:docname="IrreversibleMeltdown.svg"
   inkscape:version="1.3.1 (91b66b0783, 2023-11-16)"
   xmlns:inkscape="http://www.inkscape.org/namespaces/inkscape"
   xmlns:sodipodi="http://sodipodi.sourceforge.net/DTD/sodipodi-0.dtd"
   xmlns="http://www.w3.org/2000/svg"
   xmlns:svg="http://www.w3.org/2000/svg"><sodipodi:namedview
     id="namedview1"
     pagecolor="#ffffff"
     bordercolor="#000000"
     borderopacity="0.25"
     inkscape:showpageshadow="2"
     inkscape:pageopacity="0.0"
     inkscape:pagecheckerboard="0"
     inkscape:deskcolor="#d1d1d1"
     inkscape:document-units="mm"
     inkscape:zoom="0.25"
     inkscape:cx="1440"
     inkscape:cy="166"
     inkscape:window-width="1920"
     inkscape:window-height="1009"
     inkscape:window-x="3832"
     inkscape:window-y="-8"
     inkscape:window-maximized="1"
     inkscape:current-layer="layer1" /><defs
     id="defs1"><rect
       x="398"
       y="10"
       width="1194"
       height="398"
       id="rect3" /></defs><g
     inkscape:label="Layer 1"
     inkscape:groupmode="layer"
     id="layer1"
     transform="translate(96.512466,-96.721279)"><g
       id="g1"
       inkscape:label="Structure"
       style="display:none;opacity:1;fill:#1f9eff;fill-opacity:1"
       transform="matrix(0.96910963,0,0,0.96910963,-3.1820157,2.9934721)"><path
         fill="currentColor"
         d="m -49.755976,98.779114 52.407822,51.593746 -52.407822,51.59375 -52.407814,-51.59375 z m 0,90.355206 39.37306,-38.76146 -39.37306,-38.76146 -39.373052,38.76146 z m 0,-65.88125 -4.56888,4.49792 v 45.24375 l 4.56888,4.49791 4.568891,-4.49791 v -45.24375 z m 27.547712,27.11979 -4.568892,-4.49791 h -45.957631 l -4.568886,4.49791 4.568886,4.49792 h 45.957631 z"
         id="path1"
         style="display:inline;fill:#1f9eff;fill-opacity:1;stroke-width:0.133332" /></g><text
       xml:space="preserve"
       transform="matrix(1.0460111,0,0,1.0460111,-416.48997,89.78033)"
       id="text2"
       style="font-weight:bold;font-size:64px;line-height:0.8;font-family:Arial;-inkscape-font-specification:'Arial, Bold';font-variant-caps:small-caps;letter-spacing:0px;word-spacing:0px;white-space:pre;shape-inside:url(#rect3);fill:#ff7b00;fill-opacity:1;stroke:#ffffff;stroke-width:0.0377953;stroke-miterlimit:3.3"><tspan
         x="398"
         y="53.248283"
         id="tspan1">Critical Reactor
</tspan><tspan
         x="398"
         y="104.44828"
         id="tspan2">Failure</tspan></text><path
       fill="currentColor"
       d="m -6.2895488,148.72126 q 0,9.12813 -3.638019,17.52865 -3.6380202,8.40052 -9.5911502,14.35364 -5.953123,5.95313 -14.353644,9.59115 -8.400521,3.63802 -17.528646,3.63802 -9.128125,0 -17.528646,-3.63802 -8.400521,-3.63802 -14.353646,-9.59115 -5.953125,-5.95312 -9.591146,-14.35364 -3.63802,-8.40052 -3.63802,-17.52865 0,-9.12812 3.63802,-17.52864 3.638021,-8.40052 9.591146,-14.35365 5.953125,-5.95312 14.353646,-9.59114 8.400521,-3.63803 17.528646,-3.63803 9.128125,0 17.528646,3.63803 8.400521,3.63802 14.353644,9.59114 5.95313,5.95313 9.5911502,14.35365 3.638019,8.40052 3.638019,17.52864 z M -25.868716,123.18897 q -5.027084,-5.15937 -11.443229,-7.87135 -6.416146,-2.71198 -14.089063,-2.71198 -7.672917,0 -14.089062,2.71198 -6.416146,2.71198 -11.44323,7.87135 -5.159375,5.02708 -7.871354,11.44323 -2.711979,6.41615 -2.711979,14.08906 0,7.67292 2.711979,14.08907 2.711979,6.41614 7.871354,11.44322 5.027084,5.15938 11.44323,7.87136 6.416145,2.71198 14.089062,2.71198 7.672917,0 14.089063,-2.71198 6.416145,-2.71198 11.443229,-7.87136 5.159378,-5.02708 7.871358,-11.44322 2.71197,-6.41615 2.71197,-14.08907 0,-7.67291 -2.71197,-14.08906 -2.71198,-6.41615 -7.871358,-11.44323 z m -12.038542,25.53229 q 0,3.57188 -1.785937,6.74688 -1.785938,3.175 -4.960938,5.02708 l 6.746875,11.64167 q 6.35,-3.57188 9.988021,-9.85573 3.638021,-6.28386 3.638021,-13.5599 z m -40.613542,0 q 0,7.27604 3.638021,13.5599 3.638021,6.28385 9.988021,9.85573 l 6.746875,-11.64167 q -3.175,-1.85208 -4.960937,-5.02708 -1.785938,-3.175 -1.785938,-6.74688 z m 26.458334,-27.11979 q -3.307292,0.13229 -6.614584,1.05833 -3.307291,0.92605 -6.217708,2.64584 l 6.746875,11.64166 q 1.5875,-0.79375 3.241146,-1.25677 1.653646,-0.46302 3.505729,-0.46302 1.719792,0 3.505729,0.46302 1.785938,0.46302 3.241146,1.25677 l 6.746875,-11.64166 q -3.175,-1.85209 -6.813021,-2.77813 -3.638021,-0.92604 -7.342187,-0.92604 z m 5.159375,27.11979 q 0,1.85209 -1.322917,3.175 -1.322917,1.32292 -3.175,1.32292 v 0 q -1.852083,0 -3.175,-1.32292 -1.322917,-1.32291 -1.322917,-3.175 v 0 q 0,-1.85208 1.322917,-3.175 1.322917,-1.32291 3.175,-1.32291 v 0 q 1.852083,0 3.175,1.32291 1.322917,1.32292 1.322917,3.175 z m 4.233333,0 q 0,1.5875 -0.727604,3.37344 -0.727604,1.78594 -1.785938,2.84427 -1.058333,1.05833 -2.84427,1.78594 -1.785938,0.7276 -3.373438,0.7276 -1.5875,0 -3.373437,-0.7276 -1.785938,-0.72761 -2.844271,-1.78594 -1.058334,-1.05833 -1.785938,-2.84427 -0.727604,-1.78594 -0.727604,-3.37344 0,-1.5875 0.727604,-3.37343 0.727604,-1.78594 1.785938,-2.84428 1.058333,-1.05833 2.844271,-1.78593 1.785937,-0.72761 3.373437,-0.72761 1.5875,0 3.373438,0.72761 1.785937,0.7276 2.84427,1.78593 1.058334,1.05834 1.785938,2.84428 0.727604,1.78593 0.727604,3.37343 z m -8.466667,-0.13229 v 0 h -0.132291 v -0.13229 0 h -0.06615 -0.06615 -0.06615 -0.06615 v 0 0.13229 h -0.132291 v 0 0.0661 0.0661 0.0661 0.0661 0 h 0.132291 v 0.1323 0 h 0.06615 0.06615 0.06615 0.06615 v 0 -0.1323 h 0.132291 v 0 -0.0661 -0.0661 -0.0661 z"
       id="path1-5"
       style="display:inline;fill:#ff7b00;fill-opacity:1;stroke:none;stroke-width:0.132292;stroke-opacity:1" /></g></svg>
