<?xml version="1.0" encoding="UTF-8" standalone="no"?>
<!-- Created with Inkscape (http://www.inkscape.org/) -->

<svg
   width="512.91681mm"
   height="94.670067mm"
   viewBox="0 0 512.91681 94.670069"
   version="1.1"
   id="svg1"
   xml:space="preserve"
   inkscape:export-filename="EmptyReactorStressBar.svg"
   inkscape:export-xdpi="96"
   inkscape:export-ydpi="96"
   sodipodi:docname="SystemTrauma.svg"
   inkscape:version="1.3.1 (91b66b0783, 2023-11-16)"
   xmlns:inkscape="http://www.inkscape.org/namespaces/inkscape"
   xmlns:sodipodi="http://sodipodi.sourceforge.net/DTD/sodipodi-0.dtd"
   xmlns="http://www.w3.org/2000/svg"
   xmlns:svg="http://www.w3.org/2000/svg"><sodipodi:namedview
     id="namedview1"
     pagecolor="#ffffff"
     bordercolor="#000000"
     borderopacity="0.25"
     inkscape:showpageshadow="2"
     inkscape:pageopacity="0.0"
     inkscape:pagecheckerboard="0"
     inkscape:deskcolor="#d1d1d1"
     inkscape:document-units="mm"
     inkscape:zoom="0.25"
     inkscape:cx="1472"
     inkscape:cy="178"
     inkscape:window-width="1920"
     inkscape:window-height="1009"
     inkscape:window-x="3832"
     inkscape:window-y="-8"
     inkscape:window-maximized="1"
     inkscape:current-layer="layer1" /><defs
     id="defs1"><rect
       x="398"
       y="10"
       width="1194"
       height="398"
       id="rect3" /></defs><g
     inkscape:label="Layer 1"
     inkscape:groupmode="layer"
     id="layer1"
     transform="translate(99.998301,-101.38623)"><g
       id="g1"
       inkscape:label="Structure"
       style="display:none;opacity:1;fill:#1f9eff;fill-opacity:1"
       transform="matrix(0.96910963,0,0,0.96910963,-3.1820157,2.9934721)"><path
         fill="currentColor"
         d="m -49.755976,98.779114 52.407822,51.593746 -52.407822,51.59375 -52.407814,-51.59375 z m 0,90.355206 39.37306,-38.76146 -39.37306,-38.76146 -39.373052,38.76146 z m 0,-65.88125 -4.56888,4.49792 v 45.24375 l 4.56888,4.49791 4.568891,-4.49791 v -45.24375 z m 27.547712,27.11979 -4.568892,-4.49791 h -45.957631 l -4.568886,4.49791 4.568886,4.49792 h 45.957631 z"
         id="path1"
         style="display:inline;fill:#1f9eff;fill-opacity:1;stroke-width:0.133332" /></g><path
       fill="currentColor"
       d="m -63.890239,125.3163 -24.47385,-3.65847 8.95692,23.08617 -18.16616,16.90462 23.71693,7.44308 1.8923,24.72617 20.563104,-13.87694 20.56308,13.87694 1.89231,-24.72617 23.7169198,-7.44308 -18.1661598,-16.90462 8.95694,-23.08617 -24.47386,3.65847 -12.48923,-21.44616 z m 20.436934,9.33539 15.64309,-2.27077 -5.80309,14.76 11.60616,10.72308 -15.13846,4.79386 -1.13539,15.76923 -13.12,-8.95692 -13.120014,8.95692 -1.26154,-15.76923 -15.01231,-4.79386 11.48,-10.72308 -5.67693,-14.76 15.64308,2.27077 7.947704,-13.62462 z m -16.526174,16.52615 q 0,3.53232 2.52309,6.05539 2.52307,2.52308 6.055384,2.52308 v 0 q 3.5323,0 6.05538,-2.52308 2.52309,-2.52307 2.52309,-6.05539 v 0 q 0,-3.5323 -2.52309,-6.05538 -2.52308,-2.52308 -6.05538,-2.52308 v 0 q -3.532324,0 -6.055384,2.52308 -2.52309,2.52308 -2.52309,6.05538 z"
       id="path1-3"
       style="fill:#eed202;fill-opacity:1;stroke:#eed202;stroke-width:2.5;stroke-dasharray:none;stroke-opacity:1" /><text
       xml:space="preserve"
       transform="matrix(1.0460111,0,0,1.0460111,-416.48997,123.67763)"
       id="text2"
       style="font-weight:bold;font-size:64px;line-height:0.6;font-family:Arial;-inkscape-font-specification:'Arial, Bold';font-variant-caps:small-caps;letter-spacing:0px;word-spacing:0px;white-space:pre;shape-inside:url(#rect3);fill:#eed202;fill-opacity:1;stroke:#ffffff;stroke-width:0.0377953;stroke-miterlimit:3.3"><tspan
         x="398"
         y="46.848284"
         id="tspan1">Overcharge</tspan></text></g></svg>
